# xmcd
#
# Track frame offsets: 
#        150
#        18110
#        39085
#        67733
#        86313
#        109515
#        132566
#        152450
#        203604
#        250781
#
# Disc length: 3744 seconds
#
# Revision: 0
# Processed by: cddbd v1.5.2PL0 Copyright (c) Steve Scherf et al.
# Submitted via: ExactAudioCopy v1.0b4
#
DISCID=660e9e0a
DTITLE=Son Seals With Johnny Winter - Live.. Chicago 1978
DYEAR=2017
DGENRE=Blues
TTITLE0=Everything I Do Is Wrong
TTITLE1=I Can't Hold Out
TTITLE2=Blue Shadows Falling
TTITLE3=Nobody Wants A Loser
TTITLE4=Gangster Of Love
TTITLE5=Mother-In-Law Blues
TTITLE6=Heart Fixing Business
TTITLE7=Stormy Monday
TTITLE8=You Can't Lose What You Never Had
TTITLE9=Pretty Woman
EXTD=
EXTT0=
EXTT1=
EXTT2=
EXTT3=
EXTT4=
EXTT5=
EXTT6=
EXTT7=
EXTT8=
EXTT9=
PLAYORDER=
